<?xml version="1.0" encoding="UTF-8" standalone="no"?>
<!DOCTYPE svg PUBLIC "-//W3C//DTD SVG 20010904//EN"
              "http://www.w3.org/TR/2001/REC-SVG-20010904/DTD/svg10.dtd">

<svg xmlns="http://www.w3.org/2000/svg"
     width="0.333333in" height="0.333333in"
     viewBox="0 0 100 100">
  <path id="Auswahl"
        fill="#ffffff" stroke="black" stroke-width="1"
        d="M 51.00,67.00
           C 53.96,60.44 72.12,39.10 77.80,32.00
             80.30,28.88 85.28,21.72 89.00,20.66
             93.04,19.49 98.00,23.41 94.12,30.00
             94.12,30.00 62.40,70.00 62.40,70.00
             59.53,73.59 54.35,81.87 49.00,80.34
             45.20,79.26 39.60,71.25 37.00,68.00
             37.00,68.00 14.60,40.00 14.60,40.00
             12.29,37.12 6.27,30.28 5.57,27.00
             4.71,23.00 8.02,19.51 12.00,20.66
             15.89,21.77 22.09,30.62 24.80,34.00
             24.80,34.00 35.20,47.00 35.20,47.00
             35.20,47.00 51.00,67.00 51.00,67.00 Z" />
</svg>
