<?xml version="1.0" encoding="UTF-8" standalone="no"?>
<!DOCTYPE svg PUBLIC "-//W3C//DTD SVG 20010904//EN"
              "http://www.w3.org/TR/2001/REC-SVG-20010904/DTD/svg10.dtd">

<svg xmlns="http://www.w3.org/2000/svg"
     width="0.333333in" height="0.333333in"
     viewBox="0 0 100 100">
  <path id="Auswahl"
        fill="#ff00008f" stroke="black" stroke-width="1"
        d="M 44.00,1.56
           C 52.18,0.80 59.24,1.36 67.00,4.23
             105.10,18.30 110.26,71.31 75.42,91.98
             70.05,95.17 62.21,97.69 56.00,98.44
             49.87,99.17 42.96,98.71 37.00,97.08
             -3.18,86.12 -11.38,33.81 21.91,9.75
             28.15,5.25 36.46,2.68 44.00,1.56 Z
           M 25.00,18.00
           C 25.00,18.00 18.00,25.00 18.00,25.00
             18.00,25.00 35.00,42.00 35.00,42.00
             35.00,42.00 43.38,50.00 43.38,50.00
             43.38,50.00 35.00,58.00 35.00,58.00
             35.00,58.00 18.00,76.00 18.00,76.00
             18.00,76.00 25.00,82.00 25.00,82.00
             25.00,82.00 42.00,65.00 42.00,65.00
             42.00,65.00 50.00,56.56 50.00,56.56
             50.00,56.56 58.00,65.00 58.00,65.00
             58.00,65.00 76.00,82.00 76.00,82.00
             76.00,82.00 82.00,75.00 82.00,75.00
             82.00,75.00 65.00,58.00 65.00,58.00
             65.00,58.00 56.56,50.00 56.56,50.00
             56.56,50.00 65.00,42.00 65.00,42.00
             65.00,42.00 82.00,24.00 82.00,24.00
             82.00,24.00 75.00,18.00 75.00,18.00
             75.00,18.00 58.00,35.00 58.00,35.00
             58.00,35.00 50.00,43.50 50.00,43.50
             50.00,43.50 42.00,35.00 42.00,35.00
             42.00,35.00 25.00,18.00 25.00,18.00 Z" />
</svg>
