<?xml version="1.0" encoding="UTF-8" standalone="no"?>
<!DOCTYPE svg PUBLIC "-//W3C//DTD SVG 20010904//EN"
              "http://www.w3.org/TR/2001/REC-SVG-20010904/DTD/svg10.dtd">

<svg xmlns="http://www.w3.org/2000/svg"
     width="0.333333in" height="0.333333in"
     viewBox="0 0 100 100">
  <path id="Auswahl"
        fill="green" stroke="black" stroke-width="1"
        d="M 45.00,0.43
           C 50.88,-0.30 53.25,0.07 59.00,1.08
             98.61,8.04 113.78,58.06 84.96,85.91
             76.53,94.05 66.38,97.94 55.00,99.57
             49.45,100.37 46.42,99.87 41.00,98.92
             10.41,93.54 -7.29,61.93 3.09,33.00
             10.17,13.27 25.09,3.69 45.00,0.43 Z
           M 79.12,21.50
           C 79.00,21.38 51.42,51.00 51.42,51.00
             49.26,53.50 40.38,63.17 40.12,63.00
             39.88,62.79 35.53,58.45 34.00,57.08
             31.96,55.25 21.50,44.88 21.25,44.88
             21.25,44.88 14.50,52.00 14.62,52.00
             14.62,52.00 32.15,69.38 35.00,71.89
             37.40,74.01 40.88,77.50 40.88,77.00
             40.88,77.00 50.05,67.03 52.01,65.00
             52.01,65.00 73.17,42.00 73.17,42.00
             75.64,39.26 85.50,28.38 85.62,27.88
             86.00,28.12 79.50,21.50 79.12,21.50 Z
           M 78.75,50.62" />
</svg>
