<?xml version="1.0" encoding="UTF-8" standalone="no"?>
<!DOCTYPE svg PUBLIC "-//W3C//DTD SVG 20010904//EN"
              "http://www.w3.org/TR/2001/REC-SVG-20010904/DTD/svg10.dtd">

<svg xmlns="http://www.w3.org/2000/svg"
     width="0.333333in" height="0.333333in"
     viewBox="0 0 100 100">
  <path id="Auswahl"
        fill="#ffffff" stroke="black" stroke-width="1"
        d="M 49.00,33.00
           C 46.04,39.56 27.88,60.90 22.20,68.00
             19.70,71.12 14.72,78.28 11.00,79.34
             6.96,80.51 2.00,76.59 5.88,70.00
             5.88,70.00 37.60,30.00 37.60,30.00
             40.47,26.41 45.65,18.13 51.00,19.66
             54.80,20.74 60.40,28.75 63.00,32.00
             63.00,32.00 85.40,60.00 85.40,60.00
             87.71,62.88 93.73,69.72 94.43,73.00
             95.29,77.00 91.98,80.49 88.00,79.34
             84.11,78.23 77.91,69.38 75.20,66.00
             75.20,66.00 64.80,53.00 64.80,53.00
             64.80,53.00 49.00,33.00 49.00,33.00 Z" />
</svg>
