<?xml version="1.0" encoding="UTF-8" standalone="no"?>
<!DOCTYPE svg PUBLIC "-//W3C//DTD SVG 20010904//EN"
              "http://www.w3.org/TR/2001/REC-SVG-20010904/DTD/svg10.dtd">

<svg xmlns="http://www.w3.org/2000/svg"
     width="0.333333in" height="0.333333in"
     viewBox="0 0 100 100">
  <path id="Auswahl"
        fill="orange" stroke="black" stroke-width="1"
        d="M 49.00,0.59
           C 57.45,0.66 64.37,1.79 72.00,5.61
             78.17,8.69 82.23,11.93 86.91,17.00
             94.61,25.34 98.23,34.85 99.15,46.00
             101.56,75.13 79.98,98.34 51.00,99.41
             10.25,100.91 -13.75,53.56 9.78,21.00
             19.92,6.98 32.46,1.95 49.00,0.59 Z
           M 83.00,45.00
           C 83.00,45.00 17.00,45.00 17.00,45.00
             17.00,45.00 17.00,55.00 17.00,55.00
             17.00,55.00 83.00,55.00 83.00,55.00
             83.00,55.00 83.00,45.00 83.00,45.00 Z" />
</svg>
